<svg height="512" viewBox="0 0 60 60" width="512" xmlns="http://www.w3.org/2000/svg"><g id="Page-1" fill="none" fill-rule="evenodd"><g id="126---Pause" fill-rule="nonzero"><circle id="Oval" cx="30" cy="30" fill="#a4c2f7" r="29"/><path id="Shape" d="m30 1c-.5033333 0-1.0033333.01266667-1.5.038 15.4192225.79012792 27.5158989 13.5225465 27.5158989 28.962s-12.0966764 28.1718721-27.5158989 28.962c.4973333.0253333.9973333.038 1.5.038 16.0162576-.0000002 28.9999996-12.9837424 28.9999996-29s-12.983742-28.99999976-28.9999996-29z" fill="#7facfa"/><circle id="Oval" cx="30" cy="30" fill="#e8edfc" r="25"/><path id="Shape" d="m30 5c-.5 0-1 .019-1.5.049 13.1671239.83401357 23.4196519 11.7564891 23.4196519 24.95s-10.252528 24.1159864-23.4196519 24.95c.5.03 1 .049 1.5.049 13.7193264-.1227131 24.7763954-11.2791248 24.7763954-24.999s-11.057069-24.87628693-24.7763954-24.999z" fill="#cad9fc"/><rect id="Rectangle-path" fill="#e8edfc" height="18" rx="1" width="5" x="22" y="21"/><rect id="Rectangle-path" fill="#e8edfc" height="18" rx="1" width="5" x="33" y="21"/><path id="Shape" d="m30 59c.486 0 .966-.019 1.444-.042-15.3318363-.857976-27.33713837-13.5187955-27.37957227-28.8745608-.04243389-15.3557652 11.89271197-28.08274146 27.21957227-29.0254392-.428-.022-.851-.058-1.284-.058-16.0162576.00000024-28.99999957 12.9837424-28.99999957 29s12.98374197 28.9999998 28.99999957 29z" fill="#fff"/><path id="Shape" d="m3.079 37.624-1.925.544-.514-2c-.129-.681-.216-1.368-.325-2.047l-.155-1.021-.06-1.034-.1-2.066h2l.1 1.929.05.965.147.954c.1.635.182 1.275.3 1.907z" fill="#fff"/><g fill="#428dff"><path id="Shape" d="m1.324 34.989c-.55228473.0027614-1.00223852-.4427153-1.00499994-.995-.00276143-.5522847.44271521-1.0022385.99499994-1.005h.01c.55228475 0 1 .4477153 1 1s-.44771525 1-1 1z"/><path id="Shape" d="m30 0c-16.5607751.01873704-29.98126296 13.4392249-30 30 0 .5522847.44771525 1 1 1s1-.4477153 1-1c-.03703445-13.0419552 8.9105865-24.39266116 21.6006558-27.40199811s25.7817291 3.11494978 31.6048746 14.78478031c5.8231455 11.6698305 2.8447432 25.8129406-7.1902289 34.1432048-10.0349722 8.3302642-24.4846519 8.654611-34.8833015.783013-2.4153064-1.8222826-4.52302272-4.0198039-6.243-6.509-1.68838228-2.5090098-2.97391975-5.2666733-3.81-8.173-.15022145-.5315741-.70292593-.8407215-1.2345-.6905s-.84072145.7029259-.6905 1.2345c.89592027 3.115382 2.27429228 6.0712055 4.085 8.76 1.84267172 2.6644377 4.09948786 5.0171306 6.685 6.969 10.4185939 7.8832729 24.7421321 8.1137639 35.4089777.5697931s15.2217202-21.1259437 11.2600289-33.5757668c-3.9616913-12.44982296-15.5280523-20.9018146-28.5930066-20.8940263z"/><path id="Shape" d="m29 51c0 .5522847.4477153 1 1 1 1.7650199.0010376 3.5237217-.2108259 5.238-.631.3590181-.0734995.6490751-.3374891.7559582-.6880204.1068831-.3505314.0134692-.7314479-.243459-.9927601-.2569282-.2613123-.6362098-.3611571-.9884992-.2602195-1.5586296.3810627-3.1574646.573111-4.762.572-.5522847 0-1 .4477153-1 1z"/><path id="Shape" d="m40 49.463c.1670214-.0001104.3313552-.0420533.478-.122 1.1038885-.6014424 2.1546691-1.2956066 3.141-2.075.396999-.3519542.4500381-.9526847.1208486-1.3687547-.3291896-.41607-.9260112-.5026387-1.3598486-.1972453-.8977083.709308-1.8541604 1.340921-2.859 1.888-.3981783.2202915-.5974179.681636-.484784 1.1225304.1126338.4408945.5087357.7501491.963784.7524696z"/><path id="Shape" d="m47.809 42.9c2.7325075-3.7452972 4.2005163-8.2638639 4.191-12.9 0-.5522847-.4477153-1-1-1s-1 .4477153-1 1c.0093175 4.2148407-1.3249116 8.3229635-3.809 11.728-.2932003.4467484-.1833582 1.0450717.2494062 1.358545s1.0355133.2313161 1.3685938-.186545z"/><path id="Shape" d="m7.489 19.084c-.50589368-.2214235-1.0955042.009138-1.317.515-1.43960239 3.2781739-2.17936612 6.8206613-2.172 10.401 0 14.3594035 11.6405965 26 26 26s26-11.6405965 26-26-11.6405965-26-26-26c-3.5800019-.00722696-7.1221344.7325338-10.4 2.172-.3515292.12617922-.603445.43773808-.653235.80789332-.04979.37015525.1108452.73720681.4165381.95178968s.7054884.24092888 1.0366969.068317c3.0261195-1.32694271 6.2957436-2.0081144 9.6-2 13.254834 0 24 10.745166 24 24s-10.745166 24-24 24-24-10.745166-24-24c-.0081144-3.3042564.67305729-6.5738805 2-9.6.22124771-.504535-.00724499-1.092982-.511-1.316z"/><path id="Shape" d="m11.572 14.641c.6115454-.7309245 1.2649763-1.4257583 1.957-2.081.401511-.3796958.4191957-1.012989.0395-1.4145-.3796958-.401511-1.012989-.4191958-1.4145-.0395-.7489417.7091305-1.4558127 1.4614123-2.117 2.253-.2324007.2738262-.30010947.6512502-.17738513.9887848s.41703093.5833334.77103173.6439496c.3540007.0606163.71332-.0732608.9413534-.3507344z"/><path id="Shape" d="m26 40c1.1045695 0 2-.8954305 2-2v-16c0-1.1045695-.8954305-2-2-2h-3c-1.1045695 0-2 .8954305-2 2v16c0 1.1045695.8954305 2 2 2zm-3-18h3v16h-3z"/><path id="Shape" d="m37 40c1.1045695 0 2-.8954305 2-2v-16c0-1.1045695-.8954305-2-2-2h-3c-1.1045695 0-2 .8954305-2 2v16c0 1.1045695.8954305 2 2 2zm-3-18h3v16h-3z"/></g></g></g></svg>